<svg t="1626790970904" class="icon" viewBox="0 0 1107 1024" version="1.1" xmlns="http://www.w3.org/2000/svg" p-id="20233" width="16" height="16"><path d="M993.614305 802.950418a109.174957 109.174957 0 0 0-66.870188 23.090651l-139.934401-80.775142a247.423909 247.423909 0 0 0-152.069634-314.125552V299.464674a159.106383 159.106383 0 1 0-165.595361-9.607059v141.114215a247.423909 247.423909 0 0 0-152.069633 314.125552l-139.934401 80.775142a108.964276 108.964276 0 1 0 34.425295 43.610992l128.978983-74.538981a248.013816 248.013816 0 0 0 422.457784 0l128.978983 74.538981a109.132821 109.132821 0 0 0-9.059289 43.610992 110.354771 110.354771 0 1 0 110.607589-110.186226z m-469.186858-488.780202a152.828085 152.828085 0 0 0 55.24059 2.696719v101.5483a234.993723 234.993723 0 0 0-55.114181 0V314.170216z m27.557091 544.147201a193.194588 193.194588 0 1 1 193.278861-193.110316 193.194588 193.194588 0 0 1-193.278861 192.983907z" fill="#54A5FF" p-id="20234"></path></svg>