<svg t="1626791257895" class="icon" viewBox="0 0 1024 1024" version="1.1" xmlns="http://www.w3.org/2000/svg" p-id="21863" width="16" height="16"><path d="M696.200533 786.116267l-408.704-0.5504c-1.015467 0.093867-2.304 0.093867-3.6864 0.183466-3.037867 0.093867-6.353067 0.277333-7.458133 0.277334-49.442133 0-95.658667-20.514133-130.005333-57.770667-33.8816-36.608-52.48-85.3632-52.48-137.2416 0-107.259733 82.679467-194.461867 184.418133-194.555733C299.554133 295.7312 385.5488 221.866667 484.992 221.866667c53.4016 0 104.405333 21.064533 143.633067 59.2384 32.96 32.106667 55.240533 73.9584 63.9872 119.8592 12.8-2.944 25.966933-4.411733 39.223466-4.411734 30.660267 0 61.0432 8.093867 87.837867 23.364267 9.5744 5.4272 12.885333 17.664 7.364267 27.136-5.431467 9.565867-17.6768 12.8768-27.1616 7.36a137.480533 137.480533 0 0 0-68.040534-18.1248c-16.6656 0-32.96 3.037867-48.6144 9.015467l-24.674133 9.472-2.304-26.304c-8.192-95.022933-81.851733-166.6816-171.345067-166.6816-85.3504 0-158.549333 67.976533-170.3296 158.216533l-2.487466 19.2256-19.336534-2.0224a126.792533 126.792533 0 0 0-14.455466-0.738133c-79.7312 0-144.64 69.4528-144.64 154.7264 0 81.685333 58.368 148.834133 132.1216 154.722133l19.976533-0.183467h2.487467c0.738133 0 1.472 0.0896 2.210133 0.183467l405.8496 0.4608c5.7088 0 11.144533-0.093867 16.6656-0.277333 5.986133-0.093867 12.155733-0.277333 18.9696-0.277334 68.317867 0 127.8848-51.882667 141.696-123.264a20.0576 20.0576 0 0 1 23.3856-15.8208 20.040533 20.040533 0 0 1 15.837867 23.364267c-17.5872 90.056533-93.636267 155.554133-181.013334 155.554133-6.442667 0-12.245333 0.0896-18.048 0.273067-5.7984 0.093867-11.5072 0.183467-17.582933 0.183467z" fill="#FDBD4F" p-id="21864"></path><path d="M463.300267 607.701333c0 5.248-1.002667 10.871467-3.012267 16.955734-2.0096 6.084267-5.205333 12.074667-9.501867 17.975466-4.292267 5.896533-9.864533 10.5984-16.533333 14.2848-6.664533 3.6864-14.523733 5.5296-23.4752 5.5296-6.7584 0-12.8768-0.832-18.449067-2.487466a46.660267 46.660267 0 0 1-15.074133-7.650134c-4.475733-3.502933-8.674133-8.021333-12.420267-13.7344a87.453867 87.453867 0 0 1-8.6784-17.326933 108.113067 108.113067 0 0 1-5.3888-20.462933 143.0144 143.0144 0 0 1-1.826133-23.133867c0-13.269333 1.4592-25.066667 4.475733-35.575467 3.012267-10.504533 7.304533-19.447467 12.8768-26.820266 5.572267-7.466667 12.151467-13.085867 19.639467-16.96a51.669333 51.669333 0 0 1 24.021333-5.802667c10.414933 0 19.643733 2.670933 27.771734 7.9232 8.128 5.346133 14.340267 11.8912 18.632533 19.7248 4.296533 7.8336 6.485333 15.2064 6.485333 22.1184 0 3.780267-1.092267 7.189333-3.101866 10.1376-2.0096 2.952533-4.6592 4.334933-7.581867 4.334933-3.2896 0-5.845333-1.015467-7.492267-3.042133-1.642667-2.026667-3.4688-5.5296-5.572266-10.414933-3.3792-8.110933-7.3984-14.2848-11.963734-18.248534-4.565333-4.053333-10.231467-6.084267-16.900266-6.084266-10.688 0-19.182933 5.162667-25.4848 15.573333-6.301867 10.4192-9.501867 25.1648-9.501867 44.334933 0 12.8128 1.3696 23.4112 4.202667 31.889067 2.833067 8.482133 6.7584 14.839467 11.874133 18.986667 5.12 4.1472 11.144533 6.272 17.9968 6.272 7.488 0 13.794133-2.397867 18.9056-7.099734 5.12-4.791467 9.045333-11.707733 11.690667-20.923733 1.1008-4.330667 2.4704-7.8336 4.113066-10.5984 1.646933-2.7648 4.292267-4.053333 7.854934-4.053333 3.106133 0 5.76 1.3824 7.9488 4.1472 2.376533 2.670933 3.4688 6.08 3.4688 10.2272z m79.744-115.3024c13.3376 0 24.7552 3.498667 34.257066 10.410667 9.4976 6.912 16.712533 16.776533 21.649067 29.495467 4.932267 12.718933 7.304533 27.741867 7.304533 44.885333 0 12.718933-1.365333 24.2432-4.0192 34.658133-2.645333 10.410667-6.6688 19.447467-12.0576 27.003734-5.3888 7.650133-11.963733 13.457067-19.729066 17.5104-7.854933 4.053333-16.810667 6.084267-26.8544 6.084266-10.048 0-18.999467-2.120533-26.948267-6.267733-7.944533-4.1472-14.523733-10.048-19.822933-17.5104-5.294933-7.560533-9.314133-16.682667-12.053334-27.281067-2.743467-10.602667-4.113067-22.122667-4.113066-34.474666 0-12.625067 1.3696-24.234667 4.202666-34.743467 2.833067-10.5088 6.941867-19.541333 12.330667-26.914133 5.3888-7.3728 11.874133-13.085867 19.639467-16.96 7.671467-3.963733 16.443733-5.896533 26.2144-5.896534z m36.992 84.608c0-12.074667-1.5488-22.485333-4.565334-31.3344-3.012267-8.849067-7.3984-15.488-12.970666-20.002133-5.661867-4.514133-12.0576-6.8224-19.362134-6.8224-5.205333 0-9.9584 1.2928-14.434133 3.780267-4.381867 2.487467-8.221867 6.173867-11.328 10.965333-3.195733 4.795733-5.661867 10.88-7.488 18.346667-1.826133 7.466667-2.7392 15.7568-2.7392 25.066666s0.913067 17.792 2.7392 25.344c1.826133 7.560533 4.475733 13.824 7.765333 18.8032 3.3792 4.9792 7.214933 8.661333 11.5072 11.153067 4.386133 2.487467 9.134933 3.6864 14.340267 3.6864 6.6688 0 12.791467-2.120533 18.363733-6.357333 5.572267-4.241067 9.954133-10.88 13.333334-19.7248 3.106133-8.938667 4.842667-19.908267 4.842666-32.904534z m58.1888 66.914134h27.037866c2.743467 0 4.753067 0.738133 6.212267 2.120533 1.463467 1.3824 2.103467 3.3152 2.103467 5.802667 0 2.218667-0.5504 3.968-1.646934 5.533866-1.096533 1.472-2.8288 2.304-5.115733 2.304h-38.088533c-2.56 0-4.565333-0.9216-6.0288-2.7648a10.0224 10.0224 0 0 1-2.193067-6.4512c0-1.570133 0.456533-3.6864 1.3696-6.357333 0.913067-2.6752 1.92-4.706133 3.016533-6.178133a431.530667 431.530667 0 0 1 12.420267-15.761067c3.656533-4.330667 6.301867-7.189333 7.9488-8.571733 2.833067-2.581333 5.205333-5.162667 7.031467-7.744 1.92-2.577067 3.2896-5.248 4.296533-8.017067a23.330133 23.330133 0 0 0 1.4592-8.021333c0-2.8544-0.546133-5.341867-1.553067-7.645867-1.096533-2.2144-2.466133-3.968-4.292266-5.252267a10.5216 10.5216 0 0 0-5.9392-1.847466c-4.565333 0-8.0384 2.581333-10.688 7.650133-0.362667 0.648533-0.913067 2.491733-1.732267 5.44-0.823467 2.948267-1.736533 5.252267-2.743467 6.818133-1.002667 1.570133-2.555733 2.397867-4.475733 2.397867-1.732267 0-3.195733-0.738133-4.292267-2.210133-1.096533-1.476267-1.736533-3.413333-1.736533-5.9904 0-3.042133 0.5504-6.272 1.646933-9.5872 1.096533-3.319467 2.645333-6.357333 4.7488-9.032534a24.4992 24.4992 0 0 1 8.0384-6.545066c3.285333-1.659733 7.125333-2.487467 11.511467-2.487467 5.294933 0 9.770667 1.109333 13.5168 3.2256 2.376533 1.3824 4.565333 3.413333 6.395733 5.806933 1.826133 2.487467 3.285333 5.346133 4.292267 8.571734 1.002667 3.2256 1.553067 6.634667 1.553067 10.1376 0 5.5296-1.096533 10.5088-3.2 15.022933-2.0992 4.5184-4.292267 8.021333-6.485334 10.5984-2.1888 2.581333-5.934933 6.545067-11.140266 11.985067-5.205333 5.435733-8.772267 9.6768-10.688 12.714666-0.823467 1.2928-1.736533 2.6752-2.56 4.334934z" fill="#FDBD4F" p-id="21865"></path></svg>