<?xml version="1.0" standalone="no"?><!DOCTYPE svg PUBLIC "-//W3C//DTD SVG 1.1//EN" "http://www.w3.org/Graphics/SVG/1.1/DTD/svg11.dtd"><svg t="1618650666098" class="icon" viewBox="0 0 1024 1024" version="1.1" xmlns="http://www.w3.org/2000/svg" p-id="13201" xmlns:xlink="http://www.w3.org/1999/xlink" width="16" height="16"><defs><style type="text/css"></style></defs><path d="M482 200v-36H278.665a30 30 0 0 0-21.801 9.392L167.8 267.608c-11.382 12.04-30.369 12.575-42.41 1.193-12.04-11.382-12.574-30.369-1.192-42.41l89.062-94.216A90 90 0 0 1 278.665 104H512c16.569 0 30 13.431 30 30v66h71c32.585 0 59 26.415 59 59v81h98c66.274 0 120 53.726 120 120v340c0 66.274-53.726 120-120 120H254c-66.274 0-120-53.726-120-120V460c0-66.274 53.726-120 120-120h98v-81c0-32.585 26.415-59 59-59h71z m288 200H254c-33.137 0-60 26.863-60 60v340c0 33.137 26.863 60 60 60h516c33.137 0 60-26.863 60-60V460c0-33.137-26.863-60-60-60zM412 260v80h200v-80H412zM304 490h160c16.569 0 30 13.431 30 30 0 16.569-13.431 30-30 30H304c-16.569 0-30-13.431-30-30 0-16.569 13.431-30 30-30z m0 110h416c16.569 0 30 13.431 30 30 0 16.569-13.431 30-30 30H304c-16.569 0-30-13.431-30-30 0-16.569 13.431-30 30-30z m0 110h416c16.569 0 30 13.431 30 30 0 16.569-13.431 30-30 30H304c-16.569 0-30-13.431-30-30 0-16.569 13.431-30 30-30z" p-id="13202"></path></svg>