<?xml version="1.0" standalone="no"?><!DOCTYPE svg PUBLIC "-//W3C//DTD SVG 1.1//EN" "http://www.w3.org/Graphics/SVG/1.1/DTD/svg11.dtd"><svg t="1618650771265" class="icon" viewBox="0 0 1024 1024" version="1.1" xmlns="http://www.w3.org/2000/svg" p-id="13357" xmlns:xlink="http://www.w3.org/1999/xlink" width="16" height="16"><defs><style type="text/css"></style></defs><path d="M876.02522 630.833904a397.107673 397.107673 0 0 0-186.073309-246.774054C511.820754 275.138888 288.305864 308.042095 195.269209 457.241121a271.167811 271.167811 0 0 0-40.845361 120.266895c-44.249141 143.526059 30.634021 308.042095 181.534937 399.944157a318.820732 318.820732 0 0 0 170.189002 46.518328 453.837341 453.837341 0 0 0 256.985395-87.363689 283.648338 283.648338 0 0 0 113.459335-303.503721z m-53.325887 12.480527a262.658361 262.658361 0 0 1 3.971077 94.171248l-247.908648-113.459335 166.785223-123.670676a321.657215 321.657215 0 0 1 77.152348 142.958763zM219.662966 524.749426l250.177834 113.459335-202.524913 148.064432a315.984249 315.984249 0 0 1-56.729668-119.132302 242.235681 242.235681 0 0 1 9.076747-142.391465z m283.648338 156.006585L535.647215 933.203032a368.74284 368.74284 0 0 1-163.94874-53.893184 356.262313 356.262313 0 0 1-66.941008-51.623997zM705.836217 461.779494l-161.112256 118.565006-26.662943-201.957617a384.05985 384.05985 0 0 1 143.526059 52.758591 393.136597 393.136597 0 0 1 44.24914 30.63402zM461.898647 374.983103l27.797537 209.89977L246.893206 476.529208A262.091064 262.091064 0 0 1 461.898647 374.983103zM592.376882 933.770329l-35.172394-258.687284 254.148911 113.459335a184.938716 184.938716 0 0 1-17.586197 35.172394A254.716208 254.716208 0 0 1 592.376882 933.770329zM375.669552 276.273481a26.662944 26.662944 0 0 1-14.182417-3.971076 27.797537 27.797537 0 0 1-9.076747-38.008878s40.278064-67.508304 6.240264-95.305841a81.123425 81.123425 0 0 1-34.605098-63.537228A92.469358 92.469358 0 0 1 358.650652 9.076747a27.23024 27.23024 0 0 1 38.576174 3.971077 27.23024 27.23024 0 0 1-3.971077 38.576174 40.278064 40.278064 0 0 0-14.182417 24.393757c0 7.374857 7.942153 15.31701 14.182417 19.855383 56.729668 47.085624 31.201317 127.074455 6.240263 167.35252a27.797537 27.797537 0 0 1-23.82646 13.047823zM566.848532 276.273481a27.23024 27.23024 0 0 1-14.749714-3.971076 27.797537 27.797537 0 0 1-8.50945-38.008878s40.278064-67.508304 6.240264-95.305841a79.421535 79.421535 0 0 1-34.605098-63.537228A90.767468 90.767468 0 0 1 549.829632 9.076747a27.23024 27.23024 0 0 1 38.576174 3.971077 27.797537 27.797537 0 0 1-3.971077 38.576174 40.278064 40.278064 0 0 0-14.182417 24.393757 30.066724 30.066724 0 0 0 13.61512 19.855383c56.729668 47.085624 31.768614 127.074455 6.240264 167.35252a27.23024 27.23024 0 0 1-23.259164 13.047823zM762.565885 274.571591a33.470504 33.470504 0 0 1-14.749713-3.971076 27.797537 27.797537 0 0 1-9.076747-38.008878s40.845361-68.075601 6.240263-95.873138A81.123425 81.123425 0 0 1 705.836217 73.181271a93.036655 93.036655 0 0 1 36.306988-66.941008 27.23024 27.23024 0 0 1 38.576174 3.971077 27.23024 27.23024 0 0 1-3.971077 38.576174 40.278064 40.278064 0 0 0-14.182417 24.393757c0 7.942153 7.942153 15.31701 14.182417 20.422681 56.729668 47.085624 31.201317 127.641752 6.240263 170.189002a27.797537 27.797537 0 0 1-20.42268 10.778637z" fill="#D3D4D5" p-id="13358"></path></svg>