<?xml version="1.0" standalone="no"?><!DOCTYPE svg PUBLIC "-//W3C//DTD SVG 1.1//EN" "http://www.w3.org/Graphics/SVG/1.1/DTD/svg11.dtd"><svg t="1619675600652" class="icon" viewBox="0 0 1024 1024" version="1.1" xmlns="http://www.w3.org/2000/svg" p-id="28387" xmlns:xlink="http://www.w3.org/1999/xlink" width="16" height="16"><defs><style type="text/css"></style></defs><path d="M970.752 626.7904c-18.0736-18.0224-44.032-26.7776-79.4624-26.7776h-62.464v-74.3936a30.8736 30.8736 0 0 0-30.8224-30.8736H530.9952V423.936h62.3104c35.4304 0 61.44-8.704 79.4624-26.7776 17.92-17.9712 26.624-44.032 26.624-79.616v-184.832c0-35.5328-8.704-61.5936-26.624-79.616-18.0224-18.0224-43.9808-26.7776-79.4624-26.7776H408.9344c-35.4816 0-61.44 8.7552-79.4624 26.7776-17.9712 18.0224-26.7264 44.032-26.7264 79.616v184.832c0 35.584 8.704 61.6448 26.7264 79.616 17.9712 18.0736 43.9808 26.7776 79.4624 26.7776h60.416v70.8096H223.8464a30.9248 30.9248 0 0 0-30.8736 30.9248v74.3424H132.7104c-35.4816 0-61.44 8.7552-79.4112 26.7776-18.0224 18.0736-26.7264 44.1344-26.7264 79.616v184.8832c0 35.584 8.704 61.6448 26.7264 79.616 17.9712 18.0224 43.9296 26.7776 79.36 26.7776h184.4736c35.4304 0 61.44-8.7552 79.4112-26.7776 18.0224-18.0224 26.7264-44.032 26.7264-79.616v-184.832c0-35.5328-8.704-61.5424-26.7264-79.6672-18.0224-18.0224-43.9808-26.7776-79.4112-26.7776h-62.464v-43.52h512.512v43.52h-60.3136c-35.4304 0-61.44 8.7552-79.4624 26.8288-17.92 18.0736-26.624 44.0832-26.624 79.5648v184.8832c0 35.584 8.704 61.5936 26.624 79.616 18.0224 18.0224 44.032 26.7776 79.4624 26.7776h184.4224c35.4304 0 61.44-8.7552 79.4112-26.7776 17.9712-17.9712 26.7264-44.032 26.7264-79.616v-184.832c0-35.5328-8.704-61.5936-26.7264-79.6672zM361.5232 891.2896c0 36.1984-8.2944 44.544-44.4416 44.544H132.7104c-36.1472 0-44.4416-8.3456-44.4416-44.544v-184.832c0-36.2496 8.2944-44.544 44.4416-44.544h184.4224c36.1472 0 44.4416 8.2944 44.4416 44.544v184.832z m574.1568 0c0 36.1984-8.2944 44.544-44.4416 44.544h-184.4224c-36.1472 0-44.4416-8.3456-44.4416-44.544v-184.832c0-36.2496 8.2944-44.544 44.4416-44.544h184.4224c36.1472 0 44.4416 8.2944 44.4416 44.544v184.832z" p-id="28388"></path></svg>