<?xml version="1.0" standalone="no"?><!DOCTYPE svg PUBLIC "-//W3C//DTD SVG 1.1//EN" "http://www.w3.org/Graphics/SVG/1.1/DTD/svg11.dtd"><svg t="1618657200742" class="icon" viewBox="0 0 1024 1024" version="1.1" xmlns="http://www.w3.org/2000/svg" p-id="25591" xmlns:xlink="http://www.w3.org/1999/xlink" width="16" height="16"><defs><style type="text/css"></style></defs><path d="M905.6256 443.392L572.416 132.7616A89.3952 89.3952 0 0 0 505.4464 102.4c-25.3952 0-49.664 10.9056-65.8944 29.0816L118.5792 443.136a56.1664 56.1664 0 0 0 40.5504 95.6928h28.8768v316.8256c0 49.152 39.3216 89.088 88.4224 89.088h137.8304c17.92 0 33.792-14.3872 33.792-32.256v-210.7392c0-8.96 5.9392-16.896 14.848-16.896h97.28c8.96 0 15.8208 7.936 15.8208 16.896v210.7392c0 17.8688 14.9504 32.256 32.768 32.256h137.8816c49.152 0 89.344-39.936 89.344-89.088v-316.7744h28.7744c22.8864 0 43.3664-13.1584 52.224-34.2016a55.7568 55.7568 0 0 0-11.3664-61.2352z" p-id="25592"></path></svg>