<?xml version="1.0" standalone="no"?><!DOCTYPE svg PUBLIC "-//W3C//DTD SVG 1.1//EN" "http://www.w3.org/Graphics/SVG/1.1/DTD/svg11.dtd"><svg t="1624973299883" class="icon" viewBox="0 0 1024 1024" version="1.1" xmlns="http://www.w3.org/2000/svg" p-id="46107" xmlns:xlink="http://www.w3.org/1999/xlink" width="16" height="16"><defs><style type="text/css"></style></defs><path d="M275.5 623.2c18.9-30.2 45-55.4 75.9-73.1V171.9c0-59.5 48.4-108 108-108s108 48.4 108 108v378.2c30.9 17.8 57 42.9 75.9 73.1 21.5 34.4 32.9 74.1 32.9 114.9 0 57.9-22.5 112.3-63.5 153.3-40.9 40.9-95.4 63.5-153.3 63.5-57.9 0-112.4-22.5-153.3-63.5-40.9-40.9-63.5-95.4-63.5-153.3 0-40.8 11.4-80.5 32.9-114.9z m183.9 296c99.9 0 181.1-81.2 181.1-181.1 0-68.5-38-130.4-99.1-161.5l-9.7-5V171.9c0-39.9-32.4-72.3-72.3-72.3s-72.3 32.4-72.3 72.3v399.8l-9.7 5c-61.1 31.1-99.1 93-99.1 161.5 0 99.7 81.2 181 181.1 181z" p-id="46108" fill="#f6ef37"></path><path d="M427.5 643.9V292.2c0-17.6 14.3-31.9 31.9-31.9 17.6 0 31.9 14.3 31.9 31.9v351.7c37.2 13.1 63.8 48.6 63.8 90.2 0 52.8-42.8 95.7-95.7 95.7-52.8 0-95.7-42.8-95.7-95.7 0-41.7 26.7-77.1 63.8-90.2zM281.3 180.3c0-20.1-36.7-80.7-36.7-80.7s-36.7 60.7-36.7 80.7c0 20.1 16.4 36.3 36.7 36.3 20.3 0 36.7-16.2 36.7-36.3zM207.9 501c0-29.9-54.8-120.5-54.8-120.5S98.4 471 98.4 501s24.5 54.2 54.8 54.2c30.2 0 54.7-24.3 54.7-54.2zM821.6 584.5c58.6 0 106-47 106-105s-106-233.2-106-233.2-106 175.3-106 233.2c0 58 47.5 105 106 105z" p-id="46109" fill="#f6ef37"></path></svg>