<svg t="1626791074648" class="icon" viewBox="0 0 1146 1024" version="1.1" xmlns="http://www.w3.org/2000/svg" p-id="21041" width="16" height="16"><path d="M573.44 1024c-31.66208 0-57.344-25.47712-57.344-56.89344v-56.89344c0-31.41632 25.68192-56.89344 57.344-56.89344 31.66208 0 57.344 25.47712 57.344 56.9344v56.85248c0 31.41632-25.68192 56.89344-57.344 56.89344zM229.376 910.21312a57.344 57.344 0 0 1-53.28896-35.06176 56.5248 56.5248 0 0 1 12.57472-62.21824l57.344-56.89344a57.67168 57.67168 0 0 1 77.824 2.99008 56.5248 56.5248 0 0 1 3.03104 77.25056l-57.344 56.89344c-10.56768 10.69056-24.9856 16.83456-40.1408 17.03936zM917.504 910.21312a57.58976 57.58976 0 0 1-40.71424-16.50688l-57.344-56.85248c-16.384-13.9264-23.51104-35.75808-18.432-56.5248a57.09824 57.09824 0 0 1 42.31168-42.02496 57.63072 57.63072 0 0 1 56.97536 18.30912l57.344 56.9344c16.05632 16.22016 20.80768 40.38656 12.0832 61.44a57.344 57.344 0 0 1-52.224 35.2256zM1089.536 568.89344h-57.344c-31.66208 0-57.344-25.47712-57.344-56.89344s25.68192-56.89344 57.344-56.89344h57.344c31.66208 0 57.344 25.47712 57.344 56.89344s-25.68192 56.89344-57.344 56.89344zM114.688 568.89344H57.344c-31.66208 0-57.344-25.47712-57.344-56.89344s25.68192-56.89344 57.344-56.89344h57.344c31.66208 0 57.344 25.47712 57.344 56.89344s-25.68192 56.89344-57.344 56.89344zM688.70144 1.14688h-229.376c-31.66208 0-57.344 25.47712-57.344 56.89344v170.63936a287.5392 287.5392 0 0 0-74.5472 379.45344 225.03424 225.03424 0 0 0 91.17696 91.01312 327.76192 327.76192 0 0 0 154.8288 40.42752c123.41248 0 232.98048-78.35648 271.9744-194.51904a283.15648 283.15648 0 0 0-99.9424-317.48096V56.89344C745.472 25.47712 719.79008 0 688.128 0l0.57344 1.14688z" fill="#FF996E" p-id="21042"></path></svg>