<?xml version="1.0" standalone="no"?><!DOCTYPE svg PUBLIC "-//W3C//DTD SVG 1.1//EN" "http://www.w3.org/Graphics/SVG/1.1/DTD/svg11.dtd"><svg t="1624973655339" class="icon" viewBox="0 0 1228 1024" version="1.1" xmlns="http://www.w3.org/2000/svg" p-id="49033" xmlns:xlink="http://www.w3.org/1999/xlink" width="19.1875" height="16"><defs><style type="text/css"></style></defs><path d="M21.026133 963.925333a126.702933 126.702933 0 0 0 177.7664 37.888 132.983467 132.983467 0 0 0 37.0688-181.725866A126.839467 126.839467 0 0 0 58.026667 782.336c-59.392 39.662933-75.844267 121.0368-37.000534 181.6576z m179.2-119.944533c25.941333 40.482133 14.882133 94.8224-24.7808 121.378133a84.650667 84.650667 0 0 1-118.784-25.258666 88.8832 88.8832 0 0 1 24.712534-121.4464 84.650667 84.650667 0 0 1 118.784 25.258666z" p-id="49034" fill="#1296db"></path><path d="M417.109333 667.921067l27.648 43.076266-207.189333 138.717867-27.579733-43.144533z" p-id="49035" fill="#1296db"></path><path d="M579.3792 442.368c-99.054933 0-179.336533 82.056533-179.336533 183.227733 0 101.239467 80.2816 183.364267 179.336533 183.364267 98.986667 0 179.4048-82.1248 179.4048-183.364267 0-101.1712-80.349867-183.227733-179.4048-183.227733z m0 310.272c-68.608 0-124.245333-56.797867-124.245333-126.976 0-70.109867 55.637333-127.044267 124.245333-127.044267 68.744533 0 124.245333 56.866133 124.245333 126.976 0 70.314667-55.5008 127.044267-124.245333 127.044267zM323.037867 11.0592c-65.536 27.8528-96.4608 104.584533-69.2224 171.554133 27.2384 66.901333 102.4 98.577067 167.867733 70.724267 65.536-27.784533 96.4608-104.721067 69.2224-171.6224A127.453867 127.453867 0 0 0 322.9696 11.0592z m82.261333 202.069333a85.128533 85.128533 0 0 1-112.162133-47.3088A88.405333 88.405333 0 0 1 339.3536 51.2a85.1968 85.1968 0 0 1 112.2304 47.3088c8.738133 21.504 8.8064 45.6704 0.136533 67.1744a86.698667 86.698667 0 0 1-46.421333 47.5136z" p-id="49036" fill="#1296db"></path><path d="M534.596267 463.530667l-46.557867 19.797333-95.095467-233.6768 46.4896-19.797333zM1226.888533 700.552533c9.0112-71.8848-40.7552-137.557333-111.069866-146.773333-70.314667-9.147733-134.690133 41.642667-143.701334 113.527467-9.0112 71.8848 40.823467 137.6256 111.138134 146.773333 70.314667 9.216 134.690133-41.642667 143.633066-113.527467z m-212.514133-27.716266c6.007467-48.059733 48.9472-81.92 96.0512-75.844267 46.967467 6.144 80.2816 50.039467 74.274133 98.0992a86.2208 86.2208 0 0 1-96.0512 75.844267c-47.104-6.144-80.2816-50.039467-74.274133-98.0992z" p-id="49037" fill="#1296db"></path><path d="M750.933333 656.315733L757.828267 614.4 1024 640.682667l-6.894933 41.984z" p-id="49038" fill="#1296db"></path></svg>