<?xml version="1.0" standalone="no"?><!DOCTYPE svg PUBLIC "-//W3C//DTD SVG 1.1//EN" "http://www.w3.org/Graphics/SVG/1.1/DTD/svg11.dtd"><svg t="1624973602982" class="icon" viewBox="0 0 1280 1024" version="1.1" xmlns="http://www.w3.org/2000/svg" p-id="47976" xmlns:xlink="http://www.w3.org/1999/xlink" width="20" height="16"><defs><style type="text/css"></style></defs><path d="M888.512981 729.644041c-182.57116 108.902096-331.190491 108.902096-513.441351 0-121.393807-72.708164-203.390679-72.708164-324.784486 0l-50.287144-85.199875c147.65843-88.402878 271.614639-91.926181 425.038474 0 144.775727 86.481076 251.435721 96.730685 413.187363 0a397.172349 397.172349 0 0 1 442.654989 0l-49.966844 85.199875c-120.112606-71.747263-222.608696-71.747263-342.401001 0zM1185.431342 512.48045a64.060056 64.060056 0 1 1 64.060056-64.060056 64.060056 64.060056 0 0 1-64.060056 64.060056z m-96.090085-288.270253a64.060056 64.060056 0 1 1 64.060057-64.060056 64.060056 64.060056 0 0 1-64.060057 64.060056z m-288.270253 288.270253a64.060056 64.060056 0 1 1 64.060056-64.060056 64.060056 64.060056 0 0 1-64.060056 64.060056zM672.950891 128.120113a64.060056 64.060056 0 1 1 64.060057-64.060057 64.252236 64.252236 0 0 1-64.060057 64.060057z m-160.15014 288.270253a64.060056 64.060056 0 1 1 64.060056-64.060056 64.252236 64.252236 0 0 1-64.060056 64.060056zM256.560525 160.150141a64.060056 64.060056 0 1 1 64.060057-64.060057 64.060056 64.060056 0 0 1-64.060057 64.060057z m-128.120112 288.270253a64.060056 64.060056 0 1 1 64.060056-64.060056 64.060056 64.060056 0 0 1-64.060056 64.060056z m296.598061 408.382859c144.775727 86.481076 251.435721 96.730685 413.187363 0a398.32543 398.32543 0 0 1 442.654989 0l-49.966844 85.199875c-120.112606-71.426963-222.608696-71.426963-342.401001 0-182.57116 109.222396-331.190491 109.222396-513.441351 0-121.393807-72.387864-203.390679-72.387864-324.784486 0l-50.287144-85.199875c147.65843-88.082577 271.614639-91.605881 425.038474 0z" p-id="47977" fill="#1afa29"></path></svg>