<?xml version="1.0" standalone="no"?><!DOCTYPE svg PUBLIC "-//W3C//DTD SVG 1.1//EN" "http://www.w3.org/Graphics/SVG/1.1/DTD/svg11.dtd"><svg t="1618652054353" class="icon" viewBox="0 0 1024 1024" version="1.1" xmlns="http://www.w3.org/2000/svg" p-id="23420" xmlns:xlink="http://www.w3.org/1999/xlink" width="16" height="16"><defs><style type="text/css"></style></defs><path d="M806.673067 183.534933c46.8992 0 84.923733-37.376 84.923733-83.456 0-46.148267-38.024533-83.490133-84.923733-83.490133-46.8992 0-84.923733 37.341867-84.923734 83.490133 0 46.08 38.024533 83.456 84.923734 83.456z m91.306666 16.452267l-91.306666 0.034133-91.2384-0.034133c-81.92 0-108.544 20.718933-108.544 108.3392v256.3072a34.338133 34.338133 0 0 0 68.369066 0l5.8368-234.3936h17.544534v641.672533c0 66.628267 92.945067 64.682667 92.945066 0l5.905067-372.462933h18.432l5.8368 372.462933c0 64.682667 92.945067 66.628267 92.945067 0v-641.706666h17.544533l5.905067 234.427733c0 49.7664 68.266667 49.7664 68.266666 0V308.3264c-0.034133-87.6544-26.624-108.3392-108.4416-108.3392zM248.183467 182.033067a83.968 83.968 0 0 0 84.0704-83.831467A83.968 83.968 0 0 0 248.183467 14.370133a83.968 83.968 0 0 0-84.104534 83.831467 83.968 83.968 0 0 0 84.104534 83.831467z m227.976533 328.226133L404.036267 273.408c-13.994667-41.915733-55.9104-74.888533-117.111467-74.888533H209.408c-61.2352 0-103.150933 32.9728-117.1456 74.888533L20.138667 510.2592c-14.9504 50.858667 44.032 68.949333 59.4944 21.435733l76.117333-216.507733h8.8064S64.512 702.8736 60.3136 717.4144c-2.116267 7.2704 0.887467 12.4928 8.6016 12.4928h86.528l0.068267 254.634667c0 51.780267 77.755733 51.780267 77.755733 0v-256.6144h29.7984l-0.034133 256.580266c0 51.8144 77.789867 51.8144 77.789866 0l0.034134-254.634666h86.528c7.714133 0 10.752-5.188267 8.635733-12.458667-4.232533-14.5408-104.311467-402.2272-104.311467-402.2272h8.840534l76.117333 216.507733c15.4624 47.547733 74.4448 29.457067 59.4944-21.435733zM516.3008 0.512h32.324267v1019.6992h-32.324267V0.512z" p-id="23421"></path></svg>