<?xml version="1.0" standalone="no"?><!DOCTYPE svg PUBLIC "-//W3C//DTD SVG 1.1//EN" "http://www.w3.org/Graphics/SVG/1.1/DTD/svg11.dtd"><svg t="1624968260644" class="icon" viewBox="0 0 1024 1024" version="1.1" xmlns="http://www.w3.org/2000/svg" p-id="44610" xmlns:xlink="http://www.w3.org/1999/xlink" width="16" height="16"><defs><style type="text/css"></style></defs><path d="M780.924451 445.887721a18.687988 18.687988 0 1 1 0 37.375977H735.484479a18.687988 18.687988 0 1 1 0-37.375977h45.503972z m0-57.407964a18.687988 18.687988 0 1 1 0 37.375977H735.484479a18.687988 18.687988 0 1 1 0-37.375977h45.503972zM735.484479 196.223877a18.687988 18.687988 0 1 1 0-37.375976h45.503972a18.687988 18.687988 0 1 1 0 37.375976H735.484479z m45.503972 20.031988a18.687988 18.687988 0 1 1 0 37.375976H735.484479a18.687988 18.687988 0 1 1 0-37.375976h45.503972z m0 57.407964a18.687988 18.687988 0 1 1 0 37.375977H735.484479a18.687988 18.687988 0 1 1 0-37.375977h45.503972z m0 57.407964a18.687988 18.687988 0 1 1 0 37.375977H735.484479a18.687988 18.687988 0 1 1 0-37.375977h45.503972zM562.684587 609.919619a143.99991 143.99991 0 1 1-116.479927 0V260.351837c0-24.319985 26.111984-44.159972 58.239964-44.159972 32.19198 0 58.239964 19.839988 58.239963 44.159972V609.919619z m-58.239963 338.175788a206.591871 206.591871 0 0 1-206.335871-206.399871c0-61.695961 27.263983-119.679925 74.815953-159.0399l13.759991-11.391993v-415.35974c0-43.391973 53.951966-79.99995 117.759927-79.99995 63.87196 0 117.823926 36.607977 117.823926 79.99995v415.35974l13.759991 11.391993a205.887871 205.887871 0 0 1 74.879954 159.0399 206.591871 206.591871 0 0 1-206.399871 206.399871M698.172503 536.319665V155.839903c0-43.007973-22.079986-84.479947-60.671963-113.599929C601.532563 14.975991 554.364592 0 504.508624 0c-49.855969 0-97.087939 14.975991-133.119917 42.239974-38.527976 29.183982-60.607962 70.591956-60.607962 113.599929v380.543762A281.471824 281.471824 0 0 0 222.2048 741.695536c0 75.391953 29.375982 146.303909 82.687948 199.615876A280.447825 280.447825 0 0 0 504.444624 1023.99936a280.447825 280.447825 0 0 0 199.551875-82.687948 280.447825 280.447825 0 0 0 82.687948-199.615876 281.471824 281.471824 0 0 0-88.575944-205.311871" fill="#d81e06" p-id="44611"></path></svg>