<?xml version="1.0" standalone="no"?><!DOCTYPE svg PUBLIC "-//W3C//DTD SVG 1.1//EN" "http://www.w3.org/Graphics/SVG/1.1/DTD/svg11.dtd"><svg t="1618650333783" class="icon" viewBox="0 0 1151 1024" version="1.1" xmlns="http://www.w3.org/2000/svg" p-id="7049" xmlns:xlink="http://www.w3.org/1999/xlink" width="17.984375" height="16"><defs><style type="text/css"></style></defs><path d="M1148.91126 588.293543a653.055641 653.055641 0 0 1-216.311402 431.342854 15.820171 15.820171 0 0 1-11.519542 4.351827c-276.98099-0.25599-413.423566-0.25599-690.404556 0a16.408948 16.408948 0 0 1-12.031522-4.863806A647.654256 647.654256 0 0 1 14.876338 667.906379a657.407468 657.407468 0 0 1-14.59142-143.610292V230.419769H409.612647v76.796947h678.373035a38.398474 38.398474 0 0 1 0 76.796947H408.588688a467.130232 467.130232 0 0 0 1.023959 51.197965 25.598982 25.598982 0 0 0 25.598982 25.598983h691.172526c20.479186 0 25.087003 4.095837 25.087003 24.575023-0.25599 34.302636 0.51198 68.605273-2.559898 102.907909zM409.612647 153.622821H0.284918C0.284918 116.760287 0.028928 75.545925 0.028928 25.371919A24.191038 24.191038 0 0 1 25.371921 0.028927C147.991047 0.540906 261.394539 0.540906 384.013665 0.028927a25.342993 25.342993 0 0 1 25.598982 25.598982c-0.25599 62.717507-0.25599 98.556082 0 127.994912z" p-id="7050"></path></svg>