<svg t="1626790812178" class="icon" viewBox="0 0 1152 1024" version="1.1" xmlns="http://www.w3.org/2000/svg" p-id="18584" width="16" height="16"><path d="M160 512c0-32-19.2-61.44-48.64-74.24l-10.24-3.84 1.28-11.52c17.92-96 64-183.04 133.12-252.16 90.88-90.88 211.2-140.8 340.48-140.8 176.64 0 337.92 96 422.4 250.88 3.84 6.4 12.8 8.96 19.2 5.12 6.4-3.84 8.96-12.8 5.12-19.2C934.4 102.4 762.88 0 576 0c-69.12 0-135.68 14.08-198.4 39.68-61.44 25.6-115.2 62.72-162.56 110.08-47.36 47.36-83.2 102.4-108.8 162.56-15.36 35.84-25.6 72.96-32 110.08l-1.28 8.96-8.96 2.56c-38.4 7.68-64 40.96-64 78.08 0 43.52 35.84 79.36 79.36 79.36 44.8 0 80.64-35.84 80.64-79.36z m912.64-79.36c-43.52 0-79.36 35.84-79.36 79.36 0 32 19.2 61.44 48.64 74.24l10.24 3.84-2.56 11.52c-17.92 96-64 183.04-133.12 252.16-90.88 90.88-211.2 140.8-340.48 140.8-176.64 0-337.92-96-422.4-250.88-2.56-5.12-7.68-7.68-12.8-7.68-2.56 0-5.12 0-6.4 1.28-3.84 1.28-6.4 5.12-6.4 8.96-1.28 3.84-1.28 7.68 1.28 11.52C217.6 921.6 389.12 1024 576 1024c69.12 0 135.68-14.08 198.4-39.68 61.44-25.6 115.2-62.72 162.56-110.08 47.36-47.36 83.2-102.4 108.8-162.56 15.36-35.84 25.6-72.96 32-110.08l1.28-8.96 8.96-2.56c38.4-7.68 64-40.96 64-78.08 0-43.52-35.84-79.36-79.36-79.36z" p-id="18585"></path><path d="M555.52 578.56H486.4v71.68h-20.48v-71.68h-102.4c-5.12 26.88-21.76 53.76-67.84 74.24-2.56-5.12-8.96-11.52-14.08-15.36 38.4-16.64 53.76-37.12 60.16-58.88H281.6v-19.2h64V524.8h20.48v34.56h99.84V524.8H486.4v34.56h69.12v19.2z m-183.04-64c-48.64 0-62.72-6.4-62.72-34.56v-94.72h209.92v72.96H328.96v21.76c0 12.8 6.4 16.64 40.96 16.64h125.44c25.6 0 29.44-5.12 32-30.72 5.12 3.84 14.08 6.4 19.2 7.68-3.84 33.28-12.8 42.24-51.2 42.24h-122.88z m-43.52-111.36v37.12H499.2v-37.12H328.96zM611.84 576v23.04h-19.2V399.36h78.08V576h-58.88z m0-157.44v136.96H652.8V418.56h-40.96z m175.36 97.28c17.92 39.68 46.08 80.64 75.52 99.84-5.12 3.84-11.52 11.52-15.36 16.64-25.6-20.48-51.2-57.6-69.12-97.28v115.2h-20.48v-113.92c-20.48 40.96-49.92 76.8-80.64 96-2.56-5.12-8.96-11.52-14.08-15.36 34.56-19.2 66.56-60.16 85.76-101.12h-66.56v-19.2h75.52v-53.76h-62.72V422.4h62.72v-49.92h20.48V422.4h67.84v19.2h-67.84v53.76h80.64v19.2h-71.68z" p-id="18586"></path></svg>