<?xml version="1.0" standalone="no"?><!DOCTYPE svg PUBLIC "-//W3C//DTD SVG 1.1//EN" "http://www.w3.org/Graphics/SVG/1.1/DTD/svg11.dtd"><svg t="1626878770282" class="icon" viewBox="0 0 1024 1024" version="1.1" xmlns="http://www.w3.org/2000/svg" p-id="27759" xmlns:xlink="http://www.w3.org/1999/xlink" width="64" height="64"><defs><style type="text/css"></style></defs><path d="M564.825397 524.190476h-60.952381l24.380952-40.63492c8.126984-12.190476 4.063492-28.444444-12.190476-36.571429s-28.444444-4.063492-36.571429 12.190476l-44.698412 81.269841c-4.063492 8.126984-4.063492 20.31746 0 28.444445 4.063492 8.126984 12.190476 12.190476 24.380952 12.190476h60.952381l-20.31746 40.634921c-8.126984 12.190476-4.063492 28.444444 12.190476 36.571428 4.063492 4.063492 8.126984 4.063492 12.190476 4.063492 12.190476 0 20.31746-4.063492 24.380953-12.190476l44.698412-81.269841c4.063492-8.126984 4.063492-20.31746 0-28.444445-8.126984-8.126984-16.253968-16.253968-28.444444-16.253968z" fill="#FF5252" p-id="27760"></path><path d="M512 0C227.555556 0 0 227.555556 0 512s227.555556 512 512 512 512-227.555556 512-512S796.444444 0 512 0z m134.095238 304.761905L690.793651 251.936508c8.126984-12.190476 28.444444-12.190476 36.571428-4.063492 12.190476 8.126984 12.190476 28.444444 4.063492 36.571428l-44.698412 52.825397c-4.063492 8.126984-12.190476 12.190476-20.317461 12.190476s-12.190476-4.063492-16.253968-8.126984c-12.190476-8.126984-16.253968-28.444444-4.063492-36.571428z m-162.539682-105.650794c0-16.253968 12.190476-28.444444 28.444444-28.444444 16.253968 0 28.444444 12.190476 28.444444 28.444444v69.079365c0 16.253968-12.190476 28.444444-28.444444 28.444445-16.253968 0-28.444444-12.190476-28.444444-28.444445V199.111111zM300.698413 251.936508c12.190476-12.190476 28.444444-8.126984 36.571428 4.063492l44.698413 52.825397c12.190476 12.190476 8.126984 28.444444-4.063492 36.571428 0 4.063492-8.126984 8.126984-16.253968 8.126985s-16.253968-4.063492-20.317461-12.190477L296.634921 288.507937c-8.126984-8.126984-8.126984-24.380952 4.063492-36.571429z m-109.714286 190.984127c4.063492-12.190476 20.31746-24.380952 32.507936-20.31746l69.079366 12.190476c12.190476 4.063492 24.380952 20.31746 20.31746 32.507936-4.063492 12.190476-16.253968 20.31746-28.444445 20.317461h-4.063492l-69.079365-12.190477c-16.253968 0-24.380952-16.253968-20.31746-32.507936z m617.650794 325.079365H215.365079c-16.253968 0-28.444444-12.190476-28.444444-28.444444 0-16.253968 12.190476-28.444444 28.444444-28.444445h121.904762v-203.174603c0-97.52381 77.206349-174.730159 174.730159-174.730159s174.730159 77.206349 174.730159 174.730159v203.174603h121.904762c16.253968 0 28.444444 12.190476 28.444444 28.444445 0 20.31746-12.190476 28.444444-28.444444 28.444444z m8.126984-292.571429l-69.079365 12.190477h-4.063492c-12.190476 0-24.380952-8.126984-28.444445-20.317461 0-16.253968 8.126984-28.444444 20.31746-32.507936l69.079366-12.190476c16.253968-4.063492 28.444444 8.126984 32.507936 20.31746 4.063492 16.253968-8.126984 32.507937-20.31746 32.507936z" fill="#FF5252" p-id="27761"></path></svg>